<svg width="40" height="40" viewBox="0 0 40 40" fill="none" xmlns="http://www.w3.org/2000/svg">
<g clip-path="url(#clip0_580_10054)">
<path d="M20.0071 40.0141C31.0567 40.0141 40.0141 31.0567 40.0141 20.0071C40.0141 8.95747 31.0567 0 20.0071 0C8.95747 0 0 8.95747 0 20.0071C0 31.0567 8.95747 40.0141 20.0071 40.0141Z" fill="#EA4C89"/>
<path d="M15.7148 24.0028V8.28802C15.7148 8.10447 15.8701 7.94916 16.0536 7.94916H27.3491C27.5326 7.94916 27.6738 8.10447 27.6738 8.28802V24.9912C27.6738 25.1606 27.5468 25.3018 27.3914 25.3159V24.9912C27.3914 24.4405 26.9538 24.0028 26.4031 24.0028H15.7148ZM25.7113 18.4539H17.6915C17.5079 18.4539 17.3667 18.5951 17.3667 18.7787V20.6989C17.3667 20.8824 17.5079 21.0236 17.6915 21.0236H25.7113C25.8948 21.0236 26.036 20.8824 26.036 20.6989V18.7787C26.036 18.5951 25.8948 18.4539 25.7113 18.4539ZM18.0303 19.1034H25.3865V20.3741H18.0303V19.1034ZM25.7113 12.2838H17.6915C17.5079 12.2838 17.3667 12.425 17.3667 12.6085V14.5288C17.3667 14.7123 17.5079 14.8676 17.6915 14.8676H25.7113C25.8948 14.8676 26.036 14.7123 26.036 14.5288V12.6085C26.036 12.425 25.8948 12.2838 25.7113 12.2838ZM18.0303 12.9474H25.3865V14.204H18.0303V12.9474Z" fill="#FDFDFD"/>
<path d="M12.3261 24.9488V9.98234C12.3261 8.86691 13.2439 7.94916 14.3593 7.94916H15.0653V8.2739V8.28802V24.0028H14.3593C13.5404 24.0028 12.8203 24.3699 12.3261 24.9488Z" fill="#FDFDFD"/>
<path d="M27.3491 28.761H26.4031H23.1133V26.502C23.1133 25.9513 22.6615 25.5136 22.1249 25.5136C21.5743 25.5136 21.1366 25.9513 21.1366 26.502V28.5493H17.9315V26.502C17.9315 25.9513 17.4938 25.5136 16.9432 25.5136C16.3925 25.5136 15.9548 25.9513 15.9548 26.502V28.761H14.3593C13.258 28.761 12.3261 27.8292 12.3261 26.7279C12.3261 25.5842 13.2439 24.6664 14.3593 24.6664H26.4031C26.5866 24.6664 26.7278 24.8076 26.7278 24.9912V28.0974H27.3491C27.5326 28.0974 27.6738 28.2386 27.6738 28.4222C27.6738 28.6057 27.5326 28.761 27.3491 28.761Z" fill="#FDFDFD"/>
<path d="M16.9432 32.0508C16.8867 32.0508 16.8443 32.0367 16.802 32.0226C16.689 31.9661 16.6184 31.8532 16.6184 31.7261V29.4105V26.5019V26.4878V26.4737V26.4596V26.4455V26.4314V26.4172L16.6325 26.4031V26.389V26.3749L16.6466 26.3608V26.3466V26.3325H16.6608V26.3184H16.6749V26.3043L16.689 26.2902V26.276H16.7031L16.7172 26.2619V26.2478H16.7314L16.7455 26.2337L16.7596 26.2196H16.7737V26.2054H16.7878H16.802V26.1913H16.8161H16.8302L16.8443 26.1772H16.8584H16.8726H16.8867H16.9008L16.9149 26.1631H16.929H16.9432C17.1267 26.1631 17.2679 26.3184 17.2679 26.5019V29.2129H21.7861V26.5019C21.7861 26.3184 21.9414 26.1631 22.1249 26.1631H22.1391H22.1532L22.1673 26.1772H22.1814H22.1955H22.2097H22.2238V26.1913H22.2379H22.252L22.2661 26.2054H22.2803L22.2944 26.2196H22.3085V26.2337H22.3226L22.3367 26.2478L22.3508 26.2619L22.365 26.276L22.3791 26.2902V26.3043H22.3932V26.3184L22.4073 26.3325V26.3466L22.4214 26.3608V26.3749L22.4356 26.389V26.4031V26.4172L22.4497 26.4314V26.4455V26.4596V26.4737V26.4878V26.5019V29.4105V31.7261C22.4497 31.839 22.3791 31.952 22.2661 32.0085C22.1673 32.065 22.0261 32.065 21.9273 31.9944L19.4423 30.2436L17.1408 31.9802C17.0843 32.0226 17.0137 32.0508 16.9432 32.0508Z" fill="#FDFDFD"/>
</g>
<defs>
<clipPath id="clip0_580_10054">
<rect width="40" height="40" fill="white"/>
</clipPath>
</defs>
</svg>
