<svg width="40" height="40" viewBox="0 0 40 40" fill="none" xmlns="http://www.w3.org/2000/svg">
<g clip-path="url(#clip0_542_3574)">
<path d="M20.0071 40.0141C31.0567 40.0141 40.0141 31.0567 40.0141 20.0071C40.0141 8.95747 31.0567 0 20.0071 0C8.95747 0 0 8.95747 0 20.0071C0 31.0567 8.95747 40.0141 20.0071 40.0141Z" fill="#FF4800"/>
<path fill-rule="evenodd" clip-rule="evenodd" d="M10.6883 11.4366V9.98233C10.6883 9.24812 10.0529 8.64099 9.29049 8.64099C8.54217 8.64099 7.94916 9.234 7.94916 9.98233V11.4366H10.6883Z" fill="white"/>
<path fill-rule="evenodd" clip-rule="evenodd" d="M10.8719 8.64099C11.1825 8.99397 11.3802 9.47403 11.3802 9.98233V31.359H28.6763C28.3657 31.006 28.1821 30.54 28.1821 30.0176V19.8658L26.0925 23.4663C26.0642 23.5227 26.0219 23.5651 25.9654 23.5933L24.3417 24.5393H26.2337C26.6996 24.5393 26.6996 25.2312 26.2337 25.2312H13.3286C12.8627 25.2312 12.8627 24.5393 13.3286 24.5393H22.7038L22.8027 21.7861C22.8027 21.7296 22.8168 21.6731 22.845 21.6166L28.1821 12.3826V8.64099H10.8719ZM13.3286 12.6226H26.2337C26.6996 12.6226 26.6996 13.3286 26.2337 13.3286H13.3286C12.8627 13.3286 12.8627 12.6226 13.3286 12.6226ZM13.3286 15.0229H24.5393C25.0053 15.0229 25.0053 15.7148 24.5393 15.7148H13.3286C12.8627 15.7148 12.8627 15.0229 13.3286 15.0229ZM21.2072 17.4091C21.659 17.4091 21.659 18.115 21.2072 18.115H13.3286C12.8627 18.115 12.8627 17.4091 13.3286 17.4091H21.2072ZM21.2072 19.8094C21.659 19.8094 21.659 20.5012 21.2072 20.5012H13.3286C12.8627 20.5012 12.8627 19.8094 13.3286 19.8094H21.2072ZM21.2072 22.1391C21.659 22.1391 21.659 22.845 21.2072 22.845H13.3286C12.8627 22.845 12.8627 22.1391 13.3286 22.1391H21.2072ZM13.3286 26.9255H26.2337C26.6996 26.9255 26.6996 27.6315 26.2337 27.6315H13.3286C12.8627 27.6315 12.8627 26.9255 13.3286 26.9255ZM23.0427 29.0716H26.2337C26.6996 29.0716 26.6996 29.7635 26.2337 29.7635H23.0427C22.5909 29.7635 22.5909 29.0716 23.0427 29.0716ZM17.9174 10.2788C18.3692 10.2788 18.3692 10.9848 17.9174 10.9848H13.3286C12.8627 10.9848 12.8627 10.2788 13.3286 10.2788H17.9174Z" fill="white"/>
<path fill-rule="evenodd" clip-rule="evenodd" d="M29.4105 11.6625L23.6216 21.6731L25.6548 22.8168L31.4437 12.8486L29.4105 11.6625Z" fill="white"/>
<path fill-rule="evenodd" clip-rule="evenodd" d="M25.09 23.2968L23.4804 22.3791L23.4098 24.2711L25.09 23.2968Z" fill="white"/>
<path fill-rule="evenodd" clip-rule="evenodd" d="M28.874 22.845V30.0176C28.874 30.766 29.467 31.359 30.2153 31.359C30.9919 31.359 31.6131 30.766 31.6131 30.0176V22.845H28.874Z" fill="white"/>
<path fill-rule="evenodd" clip-rule="evenodd" d="M29.7494 11.0554L31.7967 12.2414L31.9096 12.0579C32.2061 11.479 32.0226 10.7448 31.486 10.4341C31.2036 10.2647 30.8648 10.2082 30.5542 10.2929C30.2718 10.3777 30.0176 10.5753 29.8764 10.8436L29.7494 11.0554Z" fill="white"/>
</g>
<defs>
<clipPath id="clip0_542_3574">
<rect width="40" height="40" fill="white"/>
</clipPath>
</defs>
</svg>
