<svg width="40" height="40" viewBox="0 0 40 40" fill="none" xmlns="http://www.w3.org/2000/svg">
<g clip-path="url(#clip0_542_3522)">
<path d="M20 40C31.0457 40 40 31.0457 40 20C40 8.9543 31.0457 0 20 0C8.9543 0 0 8.9543 0 20C0 31.0457 8.9543 40 20 40Z" fill="#407DF2"/>
<path d="M24.2969 18.1719L26.1172 19.9922C27.0859 19.1641 29.3359 16.8984 30.2344 15.2344L29.0547 14.0547C27.3828 14.9531 25.1172 17.2188 24.2969 18.1719Z" fill="#FFFFFE"/>
<path d="M31.1641 13.9531L30.3281 13.125C30.2656 13.0625 30.1406 13.0625 30.0781 13.125L29.4531 13.75L30.5391 14.8359L31.1641 14.2109C31.2344 14.1328 31.2344 14.0313 31.1641 13.9531Z" fill="#FFFFFE"/>
<path d="M26.25 20.5391C26.1563 20.6172 26.0234 20.6172 25.9297 20.5391V27.5312C25.9297 28.1641 25.4141 28.6797 24.7813 28.6797H11.8438V30.5859C11.8438 30.9297 12.125 31.2188 12.4766 31.2188H27.8359C28.1797 31.2188 28.4688 30.9375 28.4688 30.5859V18.3984C27.5781 19.3594 26.7031 20.1875 26.25 20.5391Z" fill="#FFFFFE"/>
<path d="M22.1875 23.4375L25.5078 20.1172L24.1641 18.7734L20.8438 22.0937C20.7578 22.1797 20.8672 22.2656 20.9219 22.3203C21.2969 22.6797 21.6719 23.0703 22.0391 23.4375C22.0703 23.4844 22.1484 23.4844 22.1875 23.4375Z" fill="#FFFFFE"/>
<path d="M28.4688 13.7969V12.4609C28.4688 12.1172 28.1875 11.8281 27.8359 11.8281H25.9297V15.7813C26.7344 15.0469 27.6484 14.3047 28.4688 13.7969Z" fill="#FFFFFE"/>
<path d="M11.1016 15.9062H12.2031V17.0078H11.1016V15.9062Z" fill="#FFFFFE"/>
<path d="M11.1016 18.9531H12.2031V20.0547H11.1016V18.9531Z" fill="#FFFFFE"/>
<path d="M11.1016 25.0391H12.2031V26.1406H11.1016V25.0391Z" fill="#FFFFFE"/>
<path d="M19.625 25.0391C19.9531 25 20.2734 25.0234 20.5781 25.0938C20.6641 24.5469 20.9375 24.0156 21.4063 23.5469L20.7422 22.8828C20.2656 23.3438 19.7422 23.625 19.1953 23.7109C19.2734 24.0234 19.2891 24.3594 19.2422 24.6953L20.0078 23.9453C20.25 23.7109 20.6016 24.0781 20.3672 24.3125L19.625 25.0391Z" fill="#FFFFFE"/>
<path d="M11.1016 22H12.2031V23.1016H11.1016V22Z" fill="#FFFFFE"/>
<path d="M18.6797 10.5937C18.6406 10.4297 18.2031 10.4297 18.1641 10.5937L17.9531 11.4609H18.8828L18.6797 10.5937Z" fill="#FFFFFE"/>
<path d="M25.4219 27.5391V20.9453L22.5547 23.8125C22.3438 24.0234 22.0234 24.0547 21.7891 23.8984C21.4375 24.2578 21.0781 24.7813 21.0781 25.4375C21.0781 25.6172 20.8984 25.7344 20.7344 25.6797C20.1719 25.4688 19.4922 25.5078 18.8672 25.7891C18.8203 25.8125 18.7734 25.8125 18.7188 25.8125C18.5547 25.7891 18.4609 25.6016 18.5234 25.4531C18.8047 24.8281 18.8516 24.1484 18.6328 23.5859C18.5703 23.4219 18.6953 23.2422 18.875 23.2422C19.5234 23.2344 20.0469 22.8828 20.4141 22.5312C20.2578 22.2891 20.2891 21.9688 20.5 21.7656L23.8203 18.4297C23.7109 18.3203 23.6563 18.1875 23.7578 18.0547C24.0547 17.6797 24.6719 17.0156 25.4297 16.2891V9.4375C25.4297 9.09375 25.1484 8.80469 24.7969 8.80469H9.42187C9.07031 8.80469 8.78906 9.08594 8.78906 9.4375V27.5469C8.78906 27.8984 9.07031 28.1797 9.42187 28.1797H24.7891C25.1406 28.1641 25.4219 27.8828 25.4219 27.5391ZM18.8438 22.0469H13.8125C13.4766 22.0469 13.4766 21.5313 13.8125 21.5313H18.8438C19.1875 21.5313 19.1875 22.0469 18.8438 22.0469ZM17.4297 23.5625H13.8047C13.4687 23.5625 13.4687 23.0469 13.8047 23.0469H17.4297C17.7656 23.0469 17.7656 23.5625 17.4297 23.5625ZM17.4297 25.0938H13.8047C13.4687 25.0938 13.4687 24.5781 13.8047 24.5781H17.4297C17.7656 24.5781 17.7656 25.0938 17.4297 25.0938ZM19.4375 20.5156H13.8125C13.4766 20.5156 13.4766 20 13.8125 20H19.4375C19.7734 20.0078 19.7734 20.5156 19.4375 20.5156ZM22 19H13.8125C13.4766 19 13.4766 18.4844 13.8125 18.4844H22.0078C22.3438 18.5 22.3438 19 22 19ZM13.8125 16.9609H19.4375C19.7734 16.9609 19.7734 17.4766 19.4375 17.4766H13.8125C13.4688 17.4688 13.4688 16.9609 13.8125 16.9609ZM20.1484 10.2031C20.1484 9.97656 20.4219 9.86719 20.5781 10.0234L21.5312 10.9531L22.4844 10.0234C22.6406 9.86719 22.9219 9.98438 22.9219 10.2031V12.4922C22.9219 12.6328 22.8047 12.75 22.6641 12.75C22.5234 12.75 22.4062 12.6406 22.4062 12.4922V10.8125L21.7109 11.4922C21.6094 11.5859 21.4531 11.5859 21.3516 11.4922L20.6562 10.8125V12.4922C20.6562 12.8281 20.1406 12.8281 20.1406 12.4922L20.1484 10.2031ZM17.1953 12.4297L17.6641 10.4688C17.8281 9.78125 19.0156 9.78125 19.1797 10.4688L19.6484 12.4297C19.7266 12.7578 19.2266 12.875 19.1562 12.5469L19.0156 11.9609H17.8438L17.7031 12.5469C17.625 12.8828 17.1172 12.7656 17.1953 12.4297ZM14.6953 10.0469L15.4766 10.9609L16.2578 10.0469C16.4766 9.78906 16.8672 10.125 16.6484 10.375L15.8125 11.3516L16.6406 12.3281C16.8594 12.5859 16.4609 12.9141 16.25 12.6563L15.4688 11.75L14.6875 12.6563C14.6406 12.7188 14.5625 12.75 14.4922 12.75C14.2812 12.75 14.1562 12.4922 14.2969 12.3281L15.125 11.3516L14.2969 10.375C14.0781 10.125 14.4688 9.78125 14.6953 10.0469ZM11.2812 10.2031C11.2812 10.0625 11.3906 9.94531 11.5391 9.94531H13.4922C13.8281 9.94531 13.8281 10.4609 13.4922 10.4609H11.7969V11.0938H13.4922C13.8281 11.0938 13.8281 11.6094 13.4922 11.6094H11.7969V12.2422H13.4922C13.8281 12.2422 13.8281 12.7578 13.4922 12.7578H11.5391C11.3984 12.7578 11.2812 12.6484 11.2812 12.5V10.2031ZM10.8516 13.6641H23.3594C23.6953 13.6641 23.6953 14.1797 23.3594 14.1797H10.8516C10.5156 14.1719 10.5156 13.6641 10.8516 13.6641ZM12.4531 26.6563H10.8438C10.7031 26.6563 10.5859 26.5469 10.5859 26.3984V24.7813C10.5859 24.6406 10.6953 24.5234 10.8438 24.5234H12.4609C12.6016 24.5234 12.7188 24.6406 12.7188 24.7813V26.4062C12.7188 26.5469 12.5937 26.6563 12.4531 26.6563ZM12.4531 23.6094H10.8438C10.7031 23.6094 10.5859 23.5 10.5859 23.3516V21.7344C10.5859 21.5938 10.6953 21.4766 10.8438 21.4766H12.4609C12.6016 21.4766 12.7188 21.5938 12.7188 21.7344V23.3594C12.7188 23.5078 12.5937 23.6094 12.4531 23.6094ZM12.4531 20.5625H10.8438C10.7031 20.5625 10.5859 20.4531 10.5859 20.3047V18.6875C10.5859 18.5469 10.6953 18.4297 10.8438 18.4297H12.4609C12.6016 18.4297 12.7188 18.5391 12.7188 18.6875V20.3047C12.7188 20.4609 12.5937 20.5625 12.4531 20.5625ZM12.4531 17.5312H10.8438C10.7031 17.5312 10.5859 17.4219 10.5859 17.2734V15.6562C10.5859 15.5156 10.6953 15.3984 10.8438 15.3984H12.4609C12.6016 15.3984 12.7188 15.5078 12.7188 15.6562V17.2734C12.7188 17.4141 12.5937 17.5312 12.4531 17.5312ZM13.8125 15.4609H23.3594C23.6953 15.4609 23.6953 15.9766 23.3594 15.9766H13.8125C13.4688 15.9688 13.4688 15.4609 13.8125 15.4609ZM17.4297 26.6016H13.8047C13.4687 26.6016 13.4687 26.0859 13.8047 26.0859H17.4297C17.7656 26.0938 17.7656 26.6016 17.4297 26.6016Z" fill="#FFFFFE"/>
</g>
<defs>
<clipPath id="clip0_542_3522">
<rect width="40" height="40" fill="white"/>
</clipPath>
</defs>
</svg>
