<svg width="40" height="40" viewBox="0 0 40 40" fill="none" xmlns="http://www.w3.org/2000/svg">
<path d="M20 40C31.0457 40 40 31.0457 40 20C40 8.9543 31.0457 0 20 0C8.9543 0 0 8.9543 0 20C0 31.0457 8.9543 40 20 40Z" fill="#5347FF"/>
<path d="M34.125 28.5L30.75 21.375C30.6875 21.1875 30.5 21.125 30.3125 21.125H9.625C9.4375 21.125 9.3125 21.25 9.1875 21.375L5.875 28.5C5.75 28.8125 5.9375 29.125 6.3125 29.125H20.375C20.625 28.9375 20.875 28.8125 21.1875 28.6875C21.4375 28.625 21.6875 28.5 21.9375 28.375C22.125 28.3125 22.3125 28.1875 22.5 28.125C22.6875 28.0625 22.8125 27.9375 22.9375 27.875C22.75 27.5625 22.5625 27.25 22.5 26.875C22.125 26.625 21.9375 26.0625 21.875 25.75C21.75 25.1875 21.9375 24.8125 22.1875 24.625V24.375C22.1875 23.75 22.375 23.1875 22.75 22.75C23.1875 22.3125 23.8125 22.0625 24.5 22.0625H24.875C25.5625 22.0625 26.1875 22.3125 26.625 22.75C27.0625 23.1875 27.25 23.75 27.1875 24.375V24.625C27.4375 24.8125 27.625 25.1875 27.5 25.75C27.4375 26.0625 27.25 26.625 26.875 26.875C26.75 27.25 26.625 27.5625 26.4375 27.875C26.5625 27.9375 26.75 28.0625 26.875 28.125C27.0625 28.25 27.25 28.3125 27.4375 28.375C27.6875 28.5 28 28.625 28.1875 28.6875C28.5 28.8125 28.75 28.9375 29 29.125H33.75C34.0625 29.125 34.25 28.75 34.125 28.5Z" fill="white"/>
<path d="M28.4375 29.875C28.25 29.6875 28.0625 29.5625 27.875 29.5C27.6875 29.4375 27.4375 29.375 27.25 29.25H27.1875L26.25 28.8125C26.0625 28.75 25.875 28.625 25.75 28.5H25.6875H25.625C25.3125 28.6875 25 28.8125 24.625 28.8125C24.25 28.8125 23.9375 28.6875 23.625 28.5H23.5625L23.375 28.625C23.25 28.6875 23.125 28.75 23 28.875L22.0625 29.3125H22C21.8125 29.375 21.5625 29.5 21.375 29.5625C21.1875 29.625 21 29.75 20.8125 29.875L20.75 29.9375C20 30.6875 20 32.125 20 32.125V33.375H21.6875V32.4375C21.6875 32.25 21.875 32.0625 22.0625 32.0625C22.25 32.0625 22.4375 32.25 22.4375 32.4375V33.375H26.875V32.4375C26.875 32.25 27.0625 32.0625 27.25 32.0625C27.4375 32.0625 27.625 32.25 27.625 32.4375V33.375H29.3125V32.0625C29.25 32.0625 29.1875 30.6875 28.4375 29.875Z" fill="white"/>
<path d="M19.3125 15.3125H19.1875C18.875 15.5 18.5625 15.625 18.1875 15.625C17.8125 15.625 17.5 15.5 17.1875 15.3125L17.125 15.25H17.0625C16.9375 15.3125 16.75 15.4375 16.5 15.5625L16.375 15.625L16.5 15.6875C16.9375 16 17.5 16.25 18.125 16.5625H18.1875H18.25C18.8125 16.3125 19.375 16 19.875 15.6875L20 15.5625L19.8125 15.625C19.6875 15.5625 19.5 15.4375 19.3125 15.3125Z" fill="white"/>
<path d="M13.5625 18.9375V20.1875H15.25V19.25C15.25 19.0625 15.4375 18.875 15.625 18.875C15.8125 18.875 16 19.0625 16 19.25V20.1875H20.4375V19.25C20.4375 19.0625 20.625 18.875 20.8125 18.875C21 18.875 21.1875 19.0625 21.1875 19.25V20.1875H22.875V18.875C22.875 18.875 22.8125 16.6875 21.5 16.25C21.3125 16.1875 21.0625 16.125 20.875 16H20.8125L20.75 16.0625C20.125 16.5 19.3125 17 18.4375 17.375H18.375C18.3125 17.375 18.25 17.4375 18.25 17.4375C18.1875 17.4375 18.125 17.4375 18.125 17.4375H18.0625C17.1875 17.0625 16.375 16.5625 15.75 16.125H15.6875H15.625C15.4375 16.1875 15.25 16.3125 15 16.375C13.6875 16.75 13.5625 18.9375 13.5625 18.9375Z" fill="white"/>
<path d="M11.3125 13.1875C11.5625 13.1875 11.8125 13.1875 12.0625 13.125H12.125L13.4375 14.125C13.5 14.125 13.5 14.1875 13.5625 14.1875C13.625 14.1875 13.625 14.1875 13.6875 14.125C13.75 14.0625 13.8125 14 13.8125 13.875L13.625 12.5625L13.75 12.5C14.875 11.875 15.5 10.9375 15.5 9.8125C15.5 8 13.625 6.5625 11.3125 6.5625C9 6.5625 7.125 8.0625 7.125 9.8125C7.125 11.6875 9 13.1875 11.3125 13.1875ZM13.3125 11.125H10.375C10.125 11.125 9.9375 10.9375 9.9375 10.6875C9.9375 10.4375 10.125 10.25 10.375 10.25H13.3125C13.5625 10.25 13.75 10.4375 13.75 10.6875C13.75 10.9375 13.5625 11.125 13.3125 11.125ZM9.3125 8.625H13.3125C13.5625 8.625 13.75 8.8125 13.75 9.0625C13.75 9.3125 13.5625 9.5 13.3125 9.5H9.3125C9.0625 9.5 8.875 9.3125 8.875 9.0625C8.875 8.8125 9.0625 8.625 9.3125 8.625Z" fill="white"/>
<path d="M16.5625 13.125C16.625 13.125 16.6875 13.1875 16.6875 13.25C16.875 14.125 17.4375 14.75 18 14.875H18.125H18.1875H18.3125C18.875 14.75 19.4375 14.1875 19.625 13.25C19.625 13.1875 19.6875 13.125 19.8125 13.125C19.9375 13.0625 20.125 12.75 20.1875 12.4375C20.1875 12.375 20.1875 12.25 20.1875 12.125C20.1875 12.0625 20.125 12 20.0625 12C20 12 19.875 11.875 19.9375 11.8125V11.3125C19.9375 10.875 19.8125 10.5 19.5625 10.25C19.3125 9.9375 18.875 9.8125 18.4375 9.8125H18.0625C17.9375 9.8125 17.8125 9.8125 17.75 9.8125C17.4375 9.875 17.125 10 16.9375 10.25C16.6875 10.5 16.5625 10.875 16.5625 11.3125V11.8125C16.5625 11.875 16.5 12 16.4375 12H16.375C16.25 12 16.1875 12.125 16.25 12.4375C16.25 12.8125 16.4375 13.125 16.5625 13.125Z" fill="white"/>
<path d="M22.75 25.125C22.625 25.125 22.5 25.25 22.5625 25.625C22.625 26 22.8125 26.3125 22.9375 26.3125C23 26.3125 23.0625 26.375 23.0625 26.4375C23.25 27.3125 23.8125 27.9375 24.375 28.0625H24.5H24.5625H24.6875C25.25 27.9375 25.8125 27.375 26 26.4375C26 26.375 26.0625 26.3125 26.1875 26.3125C26.3125 26.25 26.5 25.9375 26.5625 25.625C26.5625 25.5625 26.5625 25.4375 26.5625 25.3125C26.5625 25.25 26.5 25.1875 26.4375 25.1875C26.375 25.1875 26.25 25.0625 26.3125 25V24.5C26.3125 24.0625 26.1875 23.6875 25.9375 23.4375C25.6875 23.125 25.25 23 24.8125 23H24.4375C24.3125 23 24.1875 23 24.125 23C23.8125 23.0625 23.5 23.1875 23.3125 23.4375C23.0625 23.6875 22.9375 24.0625 22.9375 24.5V25C22.875 25 22.8125 25.125 22.75 25.125Z" fill="white"/>
</svg>
