<svg width="40" height="40" viewBox="0 0 40 40" fill="none" xmlns="http://www.w3.org/2000/svg">
<g clip-path="url(#clip0_608_8158)">
<path d="M19.9972 39.9944C31.0414 39.9944 39.9944 31.0414 39.9944 19.9972C39.9944 8.95306 31.0414 0 19.9972 0C8.95306 0 0 8.95306 0 19.9972C0 31.0414 8.95306 39.9944 19.9972 39.9944Z" fill="#25D366"/>
<path d="M9.50402 10.5433C9.13164 10.5433 9.13164 11.1046 9.50402 11.1046H16.129C16.5014 11.1046 16.5014 10.5433 16.129 10.5433H9.50402ZM13.5335 29.0788C13.1611 29.0788 13.1611 29.6457 13.5335 29.6457H26.4666C26.839 29.6457 26.839 29.0788 26.4666 29.0788H13.5335ZM13.5335 27.2502C13.1611 27.2502 13.1611 27.8116 13.5335 27.8116H26.4666C26.839 27.8116 26.839 27.2502 26.4666 27.2502H13.5335ZM10.8601 25.1438H29.14C29.2956 25.1438 29.4179 25.2716 29.4179 25.4272V31.4687C29.4179 31.6243 29.2956 31.7521 29.14 31.7521H10.8601C10.7045 31.7521 10.5767 31.6243 10.5767 31.4687V25.4272C10.5767 25.2716 10.7045 25.1438 10.8601 25.1438ZM28.8565 25.7051H11.1436V31.1852H28.8565V25.7051ZM30.4961 17.1071C30.8685 17.1071 30.8685 16.5402 30.4961 16.5402H23.8711C23.4987 16.5402 23.4987 17.1071 23.8711 17.1071H30.4961ZM30.4961 15.1063C30.8685 15.1063 30.8685 14.5449 30.4961 14.5449H23.8711C23.4987 14.5449 23.4987 15.1063 23.8711 15.1063H30.4961ZM30.4961 13.1054C30.8685 13.1054 30.8685 12.5441 30.4961 12.5441H23.8711C23.4987 12.5441 23.4987 13.1054 23.8711 13.1054H30.4961ZM30.4961 11.1046C30.8685 11.1046 30.8685 10.5433 30.4961 10.5433H23.8711C23.4987 10.5433 23.4987 11.1046 23.8711 11.1046H30.4961ZM24.2602 19.1191V22.8706L27.2503 18.9468C27.3059 18.8745 27.3892 18.8356 27.4782 18.8356H30.9241C31.0797 18.8356 31.2186 18.7745 31.3187 18.6744C31.4187 18.5688 31.4798 18.4354 31.4798 18.2798V9.37055C31.4798 9.21493 31.4187 9.07599 31.3187 8.97594C31.2131 8.8759 31.0797 8.81477 30.9241 8.81477H23.4432C23.1375 8.81477 22.8874 9.05931 22.8874 9.37055V18.2798C22.8874 18.4299 22.9485 18.5744 23.0485 18.6744C23.4265 19.0524 24.2602 18.5799 24.2602 19.1191ZM23.6933 23.7043V19.4025C23.2875 19.4025 22.9819 19.4025 22.6484 19.069C22.4483 18.869 22.3205 18.5855 22.3205 18.2798V9.37055C22.3205 8.75363 22.8207 8.24786 23.4432 8.24786H30.9241C31.2297 8.24786 31.5132 8.37569 31.7188 8.57578H31.7133C31.9189 8.78142 32.0467 9.06487 32.0467 9.37055V18.2798C32.0467 18.5855 31.9189 18.869 31.7188 19.069H31.7133C31.5132 19.2747 31.2297 19.4025 30.9241 19.4025H27.6116L24.2101 23.8599C24.0379 24.1045 23.6933 23.9711 23.6933 23.7043ZM16.3069 19.4025V23.7043C16.3069 23.9711 15.9567 24.1045 15.7844 23.8599L12.3886 19.4025H9.07606C8.76482 19.4025 8.48692 19.2747 8.28128 19.069C8.0812 18.869 7.95337 18.5855 7.95337 18.2798V9.37055C7.95337 9.06487 8.0812 8.78142 8.28128 8.57578C8.48692 8.37569 8.77038 8.24786 9.07606 8.24786H16.557C17.1739 8.24786 17.6796 8.75363 17.6796 9.37055V18.2798C17.6796 18.5855 17.5518 18.869 17.3462 19.069H17.3517C17.0183 19.4025 16.707 19.4025 16.3069 19.4025ZM15.7399 22.8706V19.1191C15.7399 18.5799 16.5681 19.0524 16.9516 18.6744C17.0516 18.5744 17.1127 18.4299 17.1127 18.2798V9.37055C17.1127 9.05931 16.8626 8.81477 16.557 8.81477H9.07606C8.92044 8.81477 8.78149 8.8759 8.68145 8.97594C8.58141 9.07599 8.51471 9.21493 8.51471 9.37055V18.2798C8.51471 18.4354 8.58141 18.5688 8.68145 18.6744C8.78149 18.7745 8.92044 18.8356 9.07606 18.8356H12.5275C12.6109 18.8356 12.6942 18.8745 12.7498 18.9468L15.7399 22.8706ZM9.50402 16.5402C9.13164 16.5402 9.13164 17.1071 9.50402 17.1071H16.129C16.5014 17.1071 16.5014 16.5402 16.129 16.5402H9.50402ZM9.50402 14.5449C9.13164 14.5449 9.13164 15.1063 9.50402 15.1063H16.129C16.5014 15.1063 16.5014 14.5449 16.129 14.5449H9.50402ZM9.50402 12.5441C9.13164 12.5441 9.13164 13.1054 9.50402 13.1054H16.129C16.5014 13.1054 16.5014 12.5441 16.129 12.5441H9.50402Z" fill="white"/>
<path fill-rule="evenodd" clip-rule="evenodd" d="M26.4666 29.6457H13.5334C13.1611 29.6457 13.1611 29.0788 13.5334 29.0788H26.4666C26.839 29.0788 26.839 29.6457 26.4666 29.6457ZM26.4666 27.8116H13.5334C13.1611 27.8116 13.1611 27.2502 13.5334 27.2502H26.4666C26.839 27.2502 26.839 27.8116 26.4666 27.8116ZM28.8565 25.7051H11.1436V31.1852H28.8565V25.7051Z" fill="white"/>
<path fill-rule="evenodd" clip-rule="evenodd" d="M24.2601 19.1191V22.8706L27.2503 18.9468C27.3058 18.8745 27.3892 18.8356 27.4781 18.8356H30.924C31.0796 18.8356 31.2186 18.7745 31.3186 18.6744C31.4187 18.5688 31.4798 18.4354 31.4798 18.2798V9.37055C31.4798 9.21493 31.4187 9.07598 31.3186 8.97594C31.213 8.87589 31.0796 8.81476 30.924 8.81476H23.4431C23.1374 8.81476 22.8873 9.0593 22.8873 9.37055V18.2798C22.8873 18.4299 22.9485 18.5744 23.0485 18.6744C23.4264 19.0524 24.2601 18.5799 24.2601 19.1191ZM30.4961 17.1071H23.8711C23.4987 17.1071 23.4987 16.5402 23.8711 16.5402H30.4961C30.8684 16.5402 30.8684 17.1071 30.4961 17.1071ZM30.4961 14.5449C30.8684 14.5449 30.8684 15.1063 30.4961 15.1063H23.8711C23.4987 15.1063 23.4987 14.5449 23.8711 14.5449H30.4961ZM30.4961 12.5441C30.8684 12.5441 30.8684 13.1054 30.4961 13.1054H23.8711C23.4987 13.1054 23.4987 12.5441 23.8711 12.5441H30.4961ZM30.4961 10.5433C30.8684 10.5433 30.8684 11.1046 30.4961 11.1046H23.8711C23.4987 11.1046 23.4987 10.5433 23.8711 10.5433H30.4961Z" fill="#25D366"/>
<path fill-rule="evenodd" clip-rule="evenodd" d="M15.7399 19.1191C15.7399 18.5799 16.568 19.0524 16.9515 18.6744C17.0515 18.5744 17.1127 18.4299 17.1127 18.2798V9.37055C17.1127 9.0593 16.8626 8.81476 16.5569 8.81476H9.07599C8.92037 8.81476 8.78143 8.87589 8.68138 8.97594C8.58134 9.07598 8.51465 9.21493 8.51465 9.37055V18.2798C8.51465 18.4354 8.58134 18.5688 8.68138 18.6744C8.78143 18.7745 8.92037 18.8356 9.07599 18.8356H12.5274C12.6108 18.8356 12.6942 18.8745 12.7497 18.9468L15.7399 22.8706V19.1191ZM16.1289 17.1071H9.50395C9.13157 17.1071 9.13157 16.5402 9.50395 16.5402H16.1289C16.5013 16.5402 16.5013 17.1071 16.1289 17.1071ZM16.1289 15.1063H9.50395C9.13157 15.1063 9.13157 14.5449 9.50395 14.5449H16.1289C16.5013 14.5449 16.5013 15.1063 16.1289 15.1063ZM16.1289 13.1054H9.50395C9.13157 13.1054 9.13157 12.5441 9.50395 12.5441H16.1289C16.5013 12.5441 16.5013 13.1054 16.1289 13.1054ZM16.1289 11.1046H9.50395C9.13157 11.1046 9.13157 10.5433 9.50395 10.5433H16.1289C16.5013 10.5433 16.5013 11.1046 16.1289 11.1046Z" fill="white"/>
</g>
<defs>
<clipPath id="clip0_608_8158">
<rect width="40" height="40" fill="white"/>
</clipPath>
</defs>
</svg>
