<svg width="40" height="40" viewBox="0 0 40 40" fill="none" xmlns="http://www.w3.org/2000/svg">
<g clip-path="url(#clip0_608_8167)">
<path d="M36.0938 0H3.90625C1.74889 0 0 1.74889 0 3.90625V36.0938C0 38.2511 1.74889 40 3.90625 40H36.0938C38.2511 40 40 38.2511 40 36.0938V3.90625C40 1.74889 38.2511 0 36.0938 0Z" fill="#FF9D00"/>
<path d="M25.1445 27.7734L24.1406 28.7758C24.0404 28.8758 23.9047 28.932 23.7632 28.932H16.2351C16.0936 28.932 15.9579 28.8758 15.8578 28.7758L14.8554 27.7734H6.38354C6.51211 28.6046 6.93352 29.3625 7.57173 29.9103C8.20994 30.4582 9.02293 30.7598 9.86401 30.7609H30.1359C30.977 30.7598 31.79 30.4582 32.4282 29.9103C33.0664 29.3625 33.4878 28.6046 33.6164 27.7734H25.1445Z" fill="white"/>
<path d="M19.0851 16.5984V18.1891L20.4109 17.3938L19.0851 16.5984Z" fill="white"/>
<path d="M29.6023 9.23907H10.3976V12.8055H29.6023V9.23907ZM12.7601 11.5555H12.1804C12.1087 11.5582 12.0371 11.5465 11.97 11.5209C11.9029 11.4954 11.8417 11.4565 11.79 11.4067C11.7382 11.357 11.6971 11.2972 11.669 11.2312C11.6409 11.1651 11.6264 11.0941 11.6264 11.0223C11.6264 10.9505 11.6409 10.8794 11.669 10.8134C11.6971 10.7473 11.7382 10.6876 11.79 10.6378C11.8417 10.588 11.9029 10.5492 11.97 10.5236C12.0371 10.4981 12.1087 10.4863 12.1804 10.4891H12.7601C12.8318 10.4863 12.9034 10.4981 12.9705 10.5236C13.0376 10.5492 13.0988 10.588 13.1505 10.6378C13.2022 10.6876 13.2434 10.7473 13.2715 10.8134C13.2996 10.8794 13.3141 10.9505 13.3141 11.0223C13.3141 11.0941 13.2996 11.1651 13.2715 11.2312C13.2434 11.2972 13.2022 11.357 13.1505 11.4067C13.0988 11.4565 13.0376 11.4954 12.9705 11.5209C12.9034 11.5465 12.8318 11.5582 12.7601 11.5555ZM15.6562 11.5555H15.0781C15.0063 11.5582 14.9348 11.5465 14.8677 11.5209C14.8006 11.4954 14.7393 11.4565 14.6876 11.4067C14.6359 11.357 14.5947 11.2972 14.5666 11.2312C14.5385 11.1651 14.524 11.0941 14.524 11.0223C14.524 10.9505 14.5385 10.8794 14.5666 10.8134C14.5947 10.7473 14.6359 10.6876 14.6876 10.6378C14.7393 10.588 14.8006 10.5492 14.8677 10.5236C14.9348 10.4981 15.0063 10.4863 15.0781 10.4891H15.6577C15.7956 10.4944 15.9261 10.5528 16.0218 10.6523C16.1175 10.7517 16.1709 10.8843 16.1709 11.0223C16.1709 11.1603 16.1175 11.2929 16.0218 11.3923C15.9261 11.4917 15.7956 11.5502 15.6577 11.5555H15.6562ZM18.5523 11.5555H17.9726C17.9008 11.5582 17.8293 11.5465 17.7622 11.5209C17.6951 11.4954 17.6339 11.4565 17.5821 11.4067C17.5304 11.357 17.4893 11.2972 17.4612 11.2312C17.4331 11.1651 17.4186 11.0941 17.4186 11.0223C17.4186 10.9505 17.4331 10.8794 17.4612 10.8134C17.4893 10.7473 17.5304 10.6876 17.5821 10.6378C17.6339 10.588 17.6951 10.5492 17.7622 10.5236C17.8293 10.4981 17.9008 10.4863 17.9726 10.4891H18.5523C18.6902 10.4944 18.8206 10.5528 18.9163 10.6523C19.012 10.7517 19.0655 10.8843 19.0655 11.0223C19.0655 11.1603 19.012 11.2929 18.9163 11.3923C18.8206 11.4917 18.6902 11.5502 18.5523 11.5555ZM27.8195 11.5555H20.8663C20.7946 11.5582 20.723 11.5465 20.656 11.5209C20.5889 11.4954 20.5276 11.4565 20.4759 11.4067C20.4242 11.357 20.383 11.2972 20.3549 11.2312C20.3268 11.1651 20.3123 11.0941 20.3123 11.0223C20.3123 10.9505 20.3268 10.8794 20.3549 10.8134C20.383 10.7473 20.4242 10.6876 20.4759 10.6378C20.5276 10.588 20.5889 10.5492 20.656 10.5236C20.723 10.4981 20.7946 10.4863 20.8663 10.4891H27.8195C27.8912 10.4863 27.9628 10.4981 28.0298 10.5236C28.0969 10.5492 28.1582 10.588 28.2099 10.6378C28.2616 10.6876 28.3028 10.7473 28.3309 10.8134C28.359 10.8794 28.3735 10.9505 28.3735 11.0223C28.3735 11.0941 28.359 11.1651 28.3309 11.2312C28.3028 11.2972 28.2616 11.357 28.2099 11.4067C28.1582 11.4565 28.0969 11.4954 28.0298 11.5209C27.9628 11.5465 27.8912 11.5582 27.8195 11.5555Z" fill="white"/>
<path d="M29.6023 13.8727H10.3976V24.3899H29.6023V13.8727ZM18.0187 15.6563C18.0183 15.5615 18.0431 15.4684 18.0906 15.3865C18.1382 15.3045 18.2067 15.2367 18.2892 15.1901C18.3716 15.1435 18.465 15.1197 18.5597 15.1211C18.6545 15.1226 18.7471 15.1493 18.8281 15.1985L21.7241 16.936C21.8031 16.9834 21.8684 17.0504 21.9138 17.1306C21.9592 17.2107 21.983 17.3013 21.983 17.3934C21.983 17.4855 21.9592 17.576 21.9138 17.6562C21.8684 17.7363 21.8031 17.8034 21.7241 17.8508L18.8281 19.5883C18.7472 19.637 18.6548 19.6634 18.5604 19.6647C18.4659 19.666 18.3729 19.6422 18.2907 19.5957C18.2085 19.5492 18.1401 19.4817 18.0926 19.4001C18.0451 19.3185 18.0201 19.2257 18.0202 19.1313L18.0187 15.6563ZM27.8195 21.9844H15.0312V22.6094C15.0312 22.7509 14.975 22.8866 14.8749 22.9867C14.7748 23.0868 14.6391 23.143 14.4976 23.143C14.3561 23.143 14.2203 23.0868 14.1203 22.9867C14.0202 22.8866 13.964 22.7509 13.964 22.6094V21.9844H12.1804C12.1087 21.9871 12.0371 21.9754 11.97 21.9498C11.9029 21.9243 11.8417 21.8854 11.79 21.8357C11.7382 21.7859 11.6971 21.7262 11.669 21.6601C11.6409 21.594 11.6264 21.523 11.6264 21.4512C11.6264 21.3794 11.6409 21.3084 11.669 21.2423C11.6971 21.1762 11.7382 21.1165 11.79 21.0667C11.8417 21.017 11.9029 20.9781 11.97 20.9526C12.0371 20.927 12.1087 20.9152 12.1804 20.918H13.964V20.293C13.964 20.1515 14.0202 20.0158 14.1203 19.9157C14.2203 19.8156 14.3561 19.7594 14.4976 19.7594C14.6391 19.7594 14.7748 19.8156 14.8749 19.9157C14.975 20.0158 15.0312 20.1515 15.0312 20.293V20.918H27.8195C27.8912 20.9152 27.9628 20.927 28.0298 20.9526C28.0969 20.9781 28.1582 21.017 28.2099 21.0667C28.2616 21.1165 28.3028 21.1762 28.3309 21.2423C28.359 21.3084 28.3735 21.3794 28.3735 21.4512C28.3735 21.523 28.359 21.594 28.3309 21.6601C28.3028 21.7262 28.2616 21.7859 28.2099 21.8357C28.1582 21.8854 28.0969 21.9243 28.0298 21.9498C27.9628 21.9754 27.8912 21.9871 27.8195 21.9844Z" fill="white"/>
<path d="M15.4539 26.8625L16.4562 27.8648H23.5437L24.5461 26.8625C24.6462 26.7625 24.7819 26.7063 24.9234 26.7062H31.9195V12.7141H30.6695V24.9219C30.6695 25.0634 30.6133 25.1991 30.5132 25.2992C30.4132 25.3992 30.2774 25.4555 30.1359 25.4555H9.86404C9.72252 25.4555 9.5868 25.3992 9.48673 25.2992C9.38666 25.1991 9.33044 25.0634 9.33044 24.9219V12.7141H8.08044V26.7062H15.0781C15.2191 26.7067 15.3541 26.7629 15.4539 26.8625Z" fill="white"/>
</g>
<defs>
<clipPath id="clip0_608_8167">
<rect width="40" height="40" rx="20" fill="white"/>
</clipPath>
</defs>
</svg>
